<mxfile host="app.diagrams.net" agent="Mozilla/5.0 (Windows NT 10.0; Win64; x64) AppleWebKit/537.36 (KHTML, like Gecko) Chrome/130.0.0.0 Safari/537.36" version="24.8.4">
  <diagram id="tcjsno71EdrX0hj49cEU" name="FINALISMS">
    <mxGraphModel dx="2550" dy="1683" grid="0" gridSize="10" guides="1" tooltips="1" connect="1" arrows="1" fold="1" page="0" pageScale="1" pageWidth="850" pageHeight="1100" math="0" shadow="0">
      <root>
        <mxCell id="0" />
        <mxCell id="1" parent="0" />
        <mxCell id="CG7BJl7uc96B3Ltmujwu-2" style="edgeStyle=none;curved=1;rounded=0;orthogonalLoop=1;jettySize=auto;html=1;fontSize=12;shape=link;exitX=0.5;exitY=1;exitDx=0;exitDy=0;" parent="1" source="CG7BJl7uc96B3Ltmujwu-1" edge="1">
          <mxGeometry relative="1" as="geometry">
            <mxPoint x="283" y="333" as="targetPoint" />
            <mxPoint x="283" y="274" as="sourcePoint" />
          </mxGeometry>
        </mxCell>
        <mxCell id="MASK369SihK40Q0xY-oh-35" style="edgeStyle=orthogonalEdgeStyle;rounded=0;orthogonalLoop=1;jettySize=auto;html=1;exitX=0;exitY=0.5;exitDx=0;exitDy=0;endArrow=none;endFill=0;" parent="1" source="CG7BJl7uc96B3Ltmujwu-1" target="MASK369SihK40Q0xY-oh-34" edge="1">
          <mxGeometry relative="1" as="geometry" />
        </mxCell>
        <mxCell id="3F6Cv_izD6sbE8AVYUt3-1" value="" style="edgeLabel;html=1;align=center;verticalAlign=middle;resizable=0;points=[];fontSize=12;strokeColor=#FFFFFF;fontColor=#FFFFFF;fillColor=#182E3E;" parent="MASK369SihK40Q0xY-oh-35" connectable="0" vertex="1">
          <mxGeometry x="0.3638" y="-1" relative="1" as="geometry">
            <mxPoint y="1" as="offset" />
          </mxGeometry>
        </mxCell>
        <mxCell id="0FI_tfFNJNvcFmxFVnWc-5" style="edgeStyle=none;curved=1;rounded=0;orthogonalLoop=1;jettySize=auto;html=1;entryX=0.5;entryY=1;entryDx=0;entryDy=0;strokeColor=#23445D;fontSize=12;startSize=8;endSize=8;endArrow=none;endFill=0;" parent="1" source="CG7BJl7uc96B3Ltmujwu-1" target="0FI_tfFNJNvcFmxFVnWc-1" edge="1">
          <mxGeometry relative="1" as="geometry" />
        </mxCell>
        <mxCell id="CG7BJl7uc96B3Ltmujwu-1" value="EMPLOYEE" style="rounded=0;whiteSpace=wrap;html=1;" parent="1" vertex="1">
          <mxGeometry x="223" y="146" width="120" height="60" as="geometry" />
        </mxCell>
        <mxCell id="MASK369SihK40Q0xY-oh-2" value="HOURLY EMPLOYEE" style="rounded=0;whiteSpace=wrap;html=1;" parent="1" vertex="1">
          <mxGeometry x="120" y="439" width="120" height="60" as="geometry" />
        </mxCell>
        <mxCell id="CG7BJl7uc96B3Ltmujwu-8" style="edgeStyle=none;curved=1;rounded=0;orthogonalLoop=1;jettySize=auto;html=1;entryX=0;entryY=1;entryDx=0;entryDy=0;fontSize=12;startSize=8;endSize=8;endArrow=none;endFill=0;" parent="1" source="CG7BJl7uc96B3Ltmujwu-12" target="CG7BJl7uc96B3Ltmujwu-6" edge="1">
          <mxGeometry relative="1" as="geometry">
            <mxPoint x="545.1200000000001" y="341.0799999999999" as="sourcePoint" />
          </mxGeometry>
        </mxCell>
        <mxCell id="MASK369SihK40Q0xY-oh-22" style="edgeStyle=orthogonalEdgeStyle;rounded=0;orthogonalLoop=1;jettySize=auto;html=1;exitX=0.5;exitY=1;exitDx=0;exitDy=0;entryX=0.5;entryY=0;entryDx=0;entryDy=0;endArrow=none;endFill=0;" parent="1" source="MASK369SihK40Q0xY-oh-3" target="MASK369SihK40Q0xY-oh-13" edge="1">
          <mxGeometry relative="1" as="geometry" />
        </mxCell>
        <mxCell id="MASK369SihK40Q0xY-oh-3" value="FULLTIME EMPLOYEE" style="rounded=0;whiteSpace=wrap;html=1;" parent="1" vertex="1">
          <mxGeometry x="321" y="439" width="120" height="60" as="geometry" />
        </mxCell>
        <mxCell id="CG7BJl7uc96B3Ltmujwu-5" style="edgeStyle=none;curved=1;rounded=0;orthogonalLoop=1;jettySize=auto;html=1;entryX=0.5;entryY=0;entryDx=0;entryDy=0;fontSize=12;startSize=8;endSize=8;endArrow=none;endFill=0;" parent="1" source="CG7BJl7uc96B3Ltmujwu-3" target="MASK369SihK40Q0xY-oh-3" edge="1">
          <mxGeometry relative="1" as="geometry" />
        </mxCell>
        <mxCell id="CG7BJl7uc96B3Ltmujwu-3" value="d" style="ellipse;whiteSpace=wrap;html=1;aspect=fixed;rotation=0;" parent="1" vertex="1">
          <mxGeometry x="269.75" y="331" width="26.5" height="26.5" as="geometry" />
        </mxCell>
        <mxCell id="MASK369SihK40Q0xY-oh-26" style="edgeStyle=orthogonalEdgeStyle;rounded=0;orthogonalLoop=1;jettySize=auto;html=1;exitX=0;exitY=0.5;exitDx=0;exitDy=0;entryX=1;entryY=0.5;entryDx=0;entryDy=0;endArrow=none;endFill=0;" parent="1" source="MASK369SihK40Q0xY-oh-8" target="MASK369SihK40Q0xY-oh-23" edge="1">
          <mxGeometry relative="1" as="geometry" />
        </mxCell>
        <mxCell id="MASK369SihK40Q0xY-oh-31" style="edgeStyle=orthogonalEdgeStyle;rounded=0;orthogonalLoop=1;jettySize=auto;html=1;exitX=0.5;exitY=1;exitDx=0;exitDy=0;entryX=0.5;entryY=0;entryDx=0;entryDy=0;endArrow=none;endFill=0;" parent="1" source="MASK369SihK40Q0xY-oh-8" target="CG7BJl7uc96B3Ltmujwu-14" edge="1">
          <mxGeometry relative="1" as="geometry" />
        </mxCell>
        <mxCell id="MASK369SihK40Q0xY-oh-8" value="DEPARTMENT HEAD" style="rounded=0;whiteSpace=wrap;html=1;" parent="1" vertex="1">
          <mxGeometry x="221.5" y="615" width="135.5" height="60" as="geometry" />
        </mxCell>
        <mxCell id="MASK369SihK40Q0xY-oh-9" value="MANAGER" style="rounded=0;whiteSpace=wrap;html=1;" parent="1" vertex="1">
          <mxGeometry x="420.5" y="615" width="120" height="60" as="geometry" />
        </mxCell>
        <mxCell id="MASK369SihK40Q0xY-oh-15" value="" style="endArrow=none;html=1;rounded=0;exitX=1;exitY=1;exitDx=0;exitDy=0;entryX=0.5;entryY=0;entryDx=0;entryDy=0;" parent="1" source="MASK369SihK40Q0xY-oh-13" target="MASK369SihK40Q0xY-oh-9" edge="1">
          <mxGeometry relative="1" as="geometry">
            <mxPoint x="409" y="601" as="sourcePoint" />
            <mxPoint x="569" y="601" as="targetPoint" />
          </mxGeometry>
        </mxCell>
        <mxCell id="MASK369SihK40Q0xY-oh-13" value="d" style="ellipse;whiteSpace=wrap;html=1;aspect=fixed;rotation=0;" parent="1" vertex="1">
          <mxGeometry x="367.75" y="544" width="26.5" height="26.5" as="geometry" />
        </mxCell>
        <mxCell id="MASK369SihK40Q0xY-oh-18" style="edgeStyle=orthogonalEdgeStyle;rounded=0;orthogonalLoop=1;jettySize=auto;html=1;exitX=1;exitY=0.5;exitDx=0;exitDy=0;entryX=0.5;entryY=1;entryDx=0;entryDy=0;endArrow=none;endFill=0;" parent="1" source="MASK369SihK40Q0xY-oh-9" target="MASK369SihK40Q0xY-oh-17" edge="1">
          <mxGeometry relative="1" as="geometry" />
        </mxCell>
        <mxCell id="MASK369SihK40Q0xY-oh-17" value="manages" style="shape=rhombus;perimeter=rhombusPerimeter;whiteSpace=wrap;html=1;align=center;" parent="1" vertex="1">
          <mxGeometry x="612" y="476" width="120" height="60" as="geometry" />
        </mxCell>
        <mxCell id="CG7BJl7uc96B3Ltmujwu-4" style="edgeStyle=none;curved=1;rounded=0;orthogonalLoop=1;jettySize=auto;html=1;entryX=0.5;entryY=0;entryDx=0;entryDy=0;fontSize=12;startSize=8;endSize=8;endArrow=none;endFill=0;" parent="1" source="CG7BJl7uc96B3Ltmujwu-3" target="MASK369SihK40Q0xY-oh-2" edge="1">
          <mxGeometry relative="1" as="geometry" />
        </mxCell>
        <mxCell id="CG7BJl7uc96B3Ltmujwu-11" style="edgeStyle=none;curved=1;rounded=0;orthogonalLoop=1;jettySize=auto;html=1;fontSize=12;startSize=8;endSize=8;endArrow=none;endFill=0;" parent="1" source="CG7BJl7uc96B3Ltmujwu-6" target="MASK369SihK40Q0xY-oh-17" edge="1">
          <mxGeometry relative="1" as="geometry" />
        </mxCell>
        <mxCell id="njrsVde2IB6XEEYohYFF-3" style="rounded=0;orthogonalLoop=1;jettySize=auto;html=1;entryX=0.5;entryY=1;entryDx=0;entryDy=0;endArrow=none;endFill=0;" parent="1" source="CG7BJl7uc96B3Ltmujwu-6" target="njrsVde2IB6XEEYohYFF-2" edge="1">
          <mxGeometry relative="1" as="geometry" />
        </mxCell>
        <mxCell id="njrsVde2IB6XEEYohYFF-4" style="rounded=0;orthogonalLoop=1;jettySize=auto;html=1;entryX=0.5;entryY=1;entryDx=0;entryDy=0;endArrow=none;endFill=0;" parent="1" source="CG7BJl7uc96B3Ltmujwu-6" target="njrsVde2IB6XEEYohYFF-1" edge="1">
          <mxGeometry relative="1" as="geometry" />
        </mxCell>
        <mxCell id="CG7BJl7uc96B3Ltmujwu-6" value="EMPLOYEE&#39;S BENEFITS" style="rounded=0;whiteSpace=wrap;html=1;" parent="1" vertex="1">
          <mxGeometry x="612" y="237" width="120" height="60" as="geometry" />
        </mxCell>
        <mxCell id="MASK369SihK40Q0xY-oh-19" style="rounded=0;orthogonalLoop=1;jettySize=auto;html=1;exitX=0;exitY=1;exitDx=0;exitDy=0;entryX=0.5;entryY=0;entryDx=0;entryDy=0;endArrow=none;endFill=0;" parent="1" source="MASK369SihK40Q0xY-oh-13" target="MASK369SihK40Q0xY-oh-8" edge="1">
          <mxGeometry relative="1" as="geometry" />
        </mxCell>
        <mxCell id="CG7BJl7uc96B3Ltmujwu-13" value="" style="edgeStyle=none;curved=1;rounded=0;orthogonalLoop=1;jettySize=auto;html=1;entryX=0;entryY=1;entryDx=0;entryDy=0;fontSize=12;startSize=8;endSize=8;endArrow=none;endFill=0;" parent="1" source="MASK369SihK40Q0xY-oh-3" target="CG7BJl7uc96B3Ltmujwu-12" edge="1">
          <mxGeometry relative="1" as="geometry">
            <mxPoint x="424" y="357" as="sourcePoint" />
            <mxPoint x="503.0000000000002" y="301.0000000000001" as="targetPoint" />
          </mxGeometry>
        </mxCell>
        <mxCell id="CG7BJl7uc96B3Ltmujwu-12" value="receives" style="shape=rhombus;perimeter=rhombusPerimeter;whiteSpace=wrap;html=1;align=center;" parent="1" vertex="1">
          <mxGeometry x="462" y="331" width="120" height="60" as="geometry" />
        </mxCell>
        <mxCell id="MASK369SihK40Q0xY-oh-27" style="edgeStyle=orthogonalEdgeStyle;rounded=0;orthogonalLoop=1;jettySize=auto;html=1;exitX=0;exitY=0.5;exitDx=0;exitDy=0;entryX=1;entryY=0.5;entryDx=0;entryDy=0;endArrow=none;endFill=0;" parent="1" source="MASK369SihK40Q0xY-oh-23" target="MASK369SihK40Q0xY-oh-25" edge="1">
          <mxGeometry relative="1" as="geometry" />
        </mxCell>
        <mxCell id="MASK369SihK40Q0xY-oh-23" value="manages" style="shape=rhombus;perimeter=rhombusPerimeter;whiteSpace=wrap;html=1;align=center;" parent="1" vertex="1">
          <mxGeometry x="66" y="615" width="120" height="60" as="geometry" />
        </mxCell>
        <mxCell id="CG7BJl7uc96B3Ltmujwu-14" value="manages" style="shape=rhombus;perimeter=rhombusPerimeter;whiteSpace=wrap;html=1;align=center;" parent="1" vertex="1">
          <mxGeometry x="229.25" y="723" width="120" height="60" as="geometry" />
        </mxCell>
        <mxCell id="CG7BJl7uc96B3Ltmujwu-22" style="edgeStyle=none;curved=1;rounded=0;orthogonalLoop=1;jettySize=auto;html=1;entryX=0;entryY=0.5;entryDx=0;entryDy=0;strokeColor=#23445D;fontSize=12;startSize=8;endSize=8;endArrow=none;endFill=0;" parent="1" source="CG7BJl7uc96B3Ltmujwu-15" target="CG7BJl7uc96B3Ltmujwu-18" edge="1">
          <mxGeometry relative="1" as="geometry" />
        </mxCell>
        <mxCell id="CG7BJl7uc96B3Ltmujwu-15" value="has" style="shape=rhombus;perimeter=rhombusPerimeter;whiteSpace=wrap;html=1;align=center;" parent="1" vertex="1">
          <mxGeometry x="420.5" y="831" width="120" height="60" as="geometry" />
        </mxCell>
        <mxCell id="MASK369SihK40Q0xY-oh-30" value="EMPLOYEE SCHEDULE" style="rounded=0;whiteSpace=wrap;html=1;" parent="1" vertex="1">
          <mxGeometry x="221.5" y="831" width="135.5" height="60" as="geometry" />
        </mxCell>
        <mxCell id="CG7BJl7uc96B3Ltmujwu-23" style="edgeStyle=none;curved=1;rounded=0;orthogonalLoop=1;jettySize=auto;html=1;entryX=0.5;entryY=0;entryDx=0;entryDy=0;strokeColor=#23445D;fontSize=12;startSize=8;endSize=8;endArrow=none;endFill=0;" parent="1" source="CG7BJl7uc96B3Ltmujwu-18" target="CG7BJl7uc96B3Ltmujwu-19" edge="1">
          <mxGeometry relative="1" as="geometry" />
        </mxCell>
        <mxCell id="Q0URbwxdZeZOYWGPHVsl-3" style="edgeStyle=orthogonalEdgeStyle;rounded=0;orthogonalLoop=1;jettySize=auto;html=1;exitX=0.25;exitY=1;exitDx=0;exitDy=0;entryX=0.5;entryY=1;entryDx=0;entryDy=0;endArrow=none;endFill=0;" parent="1" source="CG7BJl7uc96B3Ltmujwu-18" target="Q0URbwxdZeZOYWGPHVsl-1" edge="1">
          <mxGeometry relative="1" as="geometry">
            <Array as="points">
              <mxPoint x="634" y="1018" />
              <mxPoint x="-389" y="1018" />
            </Array>
          </mxGeometry>
        </mxCell>
        <mxCell id="njrsVde2IB6XEEYohYFF-18" style="rounded=0;orthogonalLoop=1;jettySize=auto;html=1;entryX=0.5;entryY=1;entryDx=0;entryDy=0;endArrow=none;endFill=0;" parent="1" source="CG7BJl7uc96B3Ltmujwu-18" target="njrsVde2IB6XEEYohYFF-12" edge="1">
          <mxGeometry relative="1" as="geometry" />
        </mxCell>
        <mxCell id="njrsVde2IB6XEEYohYFF-19" style="rounded=0;orthogonalLoop=1;jettySize=auto;html=1;entryX=0.5;entryY=1;entryDx=0;entryDy=0;endArrow=none;endFill=0;" parent="1" source="CG7BJl7uc96B3Ltmujwu-18" target="njrsVde2IB6XEEYohYFF-13" edge="1">
          <mxGeometry relative="1" as="geometry" />
        </mxCell>
        <mxCell id="njrsVde2IB6XEEYohYFF-20" style="rounded=0;orthogonalLoop=1;jettySize=auto;html=1;endArrow=none;endFill=0;" parent="1" source="CG7BJl7uc96B3Ltmujwu-18" target="njrsVde2IB6XEEYohYFF-14" edge="1">
          <mxGeometry relative="1" as="geometry" />
        </mxCell>
        <mxCell id="njrsVde2IB6XEEYohYFF-21" style="rounded=0;orthogonalLoop=1;jettySize=auto;html=1;entryX=0.5;entryY=1;entryDx=0;entryDy=0;endArrow=none;endFill=0;" parent="1" source="CG7BJl7uc96B3Ltmujwu-18" target="njrsVde2IB6XEEYohYFF-15" edge="1">
          <mxGeometry relative="1" as="geometry" />
        </mxCell>
        <mxCell id="njrsVde2IB6XEEYohYFF-22" style="rounded=0;orthogonalLoop=1;jettySize=auto;html=1;entryX=0;entryY=0.5;entryDx=0;entryDy=0;endArrow=none;endFill=0;" parent="1" source="CG7BJl7uc96B3Ltmujwu-18" target="njrsVde2IB6XEEYohYFF-16" edge="1">
          <mxGeometry relative="1" as="geometry" />
        </mxCell>
        <mxCell id="CG7BJl7uc96B3Ltmujwu-18" value="EMPLOYEE&#39;S ATTENDANCE" style="rounded=0;whiteSpace=wrap;html=1;" parent="1" vertex="1">
          <mxGeometry x="604" y="831" width="120" height="60" as="geometry" />
        </mxCell>
        <mxCell id="njrsVde2IB6XEEYohYFF-28" style="rounded=0;orthogonalLoop=1;jettySize=auto;html=1;entryX=1;entryY=0.5;entryDx=0;entryDy=0;endArrow=none;endFill=0;" parent="1" source="CG7BJl7uc96B3Ltmujwu-20" target="njrsVde2IB6XEEYohYFF-23" edge="1">
          <mxGeometry relative="1" as="geometry" />
        </mxCell>
        <mxCell id="njrsVde2IB6XEEYohYFF-29" style="rounded=0;orthogonalLoop=1;jettySize=auto;html=1;endArrow=none;endFill=0;" parent="1" source="CG7BJl7uc96B3Ltmujwu-20" target="njrsVde2IB6XEEYohYFF-24" edge="1">
          <mxGeometry relative="1" as="geometry" />
        </mxCell>
        <mxCell id="njrsVde2IB6XEEYohYFF-30" style="rounded=0;orthogonalLoop=1;jettySize=auto;html=1;endArrow=none;endFill=0;" parent="1" source="CG7BJl7uc96B3Ltmujwu-20" target="njrsVde2IB6XEEYohYFF-25" edge="1">
          <mxGeometry relative="1" as="geometry" />
        </mxCell>
        <mxCell id="njrsVde2IB6XEEYohYFF-31" style="rounded=0;orthogonalLoop=1;jettySize=auto;html=1;entryX=0.5;entryY=0;entryDx=0;entryDy=0;endArrow=none;endFill=0;" parent="1" source="CG7BJl7uc96B3Ltmujwu-20" target="njrsVde2IB6XEEYohYFF-26" edge="1">
          <mxGeometry relative="1" as="geometry" />
        </mxCell>
        <mxCell id="njrsVde2IB6XEEYohYFF-32" style="rounded=0;orthogonalLoop=1;jettySize=auto;html=1;entryX=0;entryY=0.5;entryDx=0;entryDy=0;endArrow=none;endFill=0;" parent="1" source="CG7BJl7uc96B3Ltmujwu-20" target="njrsVde2IB6XEEYohYFF-27" edge="1">
          <mxGeometry relative="1" as="geometry" />
        </mxCell>
        <mxCell id="CG7BJl7uc96B3Ltmujwu-20" value="OVERTIME" style="rounded=0;whiteSpace=wrap;html=1;" parent="1" vertex="1">
          <mxGeometry x="604" y="1123" width="120" height="60" as="geometry" />
        </mxCell>
        <mxCell id="CG7BJl7uc96B3Ltmujwu-24" style="edgeStyle=none;curved=1;rounded=0;orthogonalLoop=1;jettySize=auto;html=1;entryX=0.5;entryY=0;entryDx=0;entryDy=0;strokeColor=#23445D;fontSize=12;startSize=8;endSize=8;endArrow=none;endFill=0;exitX=0.5;exitY=1;exitDx=0;exitDy=0;" parent="1" source="CG7BJl7uc96B3Ltmujwu-19" target="CG7BJl7uc96B3Ltmujwu-20" edge="1">
          <mxGeometry relative="1" as="geometry">
            <mxPoint x="664" y="1093" as="sourcePoint" />
          </mxGeometry>
        </mxCell>
        <mxCell id="MASK369SihK40Q0xY-oh-36" style="edgeStyle=orthogonalEdgeStyle;rounded=0;orthogonalLoop=1;jettySize=auto;html=1;exitX=0.5;exitY=1;exitDx=0;exitDy=0;entryX=0;entryY=0.5;entryDx=0;entryDy=0;endArrow=none;endFill=0;" parent="1" source="MASK369SihK40Q0xY-oh-34" target="MASK369SihK40Q0xY-oh-30" edge="1">
          <mxGeometry relative="1" as="geometry" />
        </mxCell>
        <mxCell id="CG7BJl7uc96B3Ltmujwu-19" value="generates" style="shape=rhombus;perimeter=rhombusPerimeter;whiteSpace=wrap;html=1;align=center;" parent="1" vertex="1">
          <mxGeometry x="604" y="1031" width="120" height="60" as="geometry" />
        </mxCell>
        <mxCell id="MASK369SihK40Q0xY-oh-34" value="has" style="shape=rhombus;perimeter=rhombusPerimeter;whiteSpace=wrap;html=1;align=center;" parent="1" vertex="1">
          <mxGeometry x="-286" y="527.25" width="120" height="60" as="geometry" />
        </mxCell>
        <mxCell id="MASK369SihK40Q0xY-oh-33" style="edgeStyle=orthogonalEdgeStyle;rounded=0;orthogonalLoop=1;jettySize=auto;html=1;exitX=0.5;exitY=1;exitDx=0;exitDy=0;endArrow=none;endFill=0;" parent="1" source="CG7BJl7uc96B3Ltmujwu-14" target="MASK369SihK40Q0xY-oh-30" edge="1">
          <mxGeometry relative="1" as="geometry" />
        </mxCell>
        <mxCell id="CG7BJl7uc96B3Ltmujwu-21" style="edgeStyle=none;curved=1;rounded=0;orthogonalLoop=1;jettySize=auto;html=1;strokeColor=#23445D;fontSize=12;startSize=8;endSize=8;endArrow=none;endFill=0;entryX=0;entryY=0.5;entryDx=0;entryDy=0;" parent="1" source="MASK369SihK40Q0xY-oh-30" target="CG7BJl7uc96B3Ltmujwu-15" edge="1">
          <mxGeometry relative="1" as="geometry">
            <mxPoint x="418" y="862" as="targetPoint" />
          </mxGeometry>
        </mxCell>
        <mxCell id="njrsVde2IB6XEEYohYFF-10" style="rounded=0;orthogonalLoop=1;jettySize=auto;html=1;entryX=0.5;entryY=0;entryDx=0;entryDy=0;endArrow=none;endFill=0;" parent="1" source="MASK369SihK40Q0xY-oh-25" target="njrsVde2IB6XEEYohYFF-7" edge="1">
          <mxGeometry relative="1" as="geometry" />
        </mxCell>
        <mxCell id="njrsVde2IB6XEEYohYFF-11" style="rounded=0;orthogonalLoop=1;jettySize=auto;html=1;entryX=0.5;entryY=0;entryDx=0;entryDy=0;endArrow=none;endFill=0;" parent="1" source="MASK369SihK40Q0xY-oh-25" target="njrsVde2IB6XEEYohYFF-8" edge="1">
          <mxGeometry relative="1" as="geometry" />
        </mxCell>
        <mxCell id="MASK369SihK40Q0xY-oh-25" value="DEPARTMENT" style="rounded=0;whiteSpace=wrap;html=1;" parent="1" vertex="1">
          <mxGeometry x="-107" y="615" width="135.5" height="60" as="geometry" />
        </mxCell>
        <mxCell id="0FI_tfFNJNvcFmxFVnWc-6" style="edgeStyle=orthogonalEdgeStyle;rounded=0;orthogonalLoop=1;jettySize=auto;html=1;strokeColor=#23445D;fontSize=12;startSize=8;endSize=8;endArrow=none;endFill=0;entryX=0;entryY=0.5;entryDx=0;entryDy=0;exitX=0.5;exitY=0;exitDx=0;exitDy=0;" parent="1" source="0FI_tfFNJNvcFmxFVnWc-1" target="0FI_tfFNJNvcFmxFVnWc-2" edge="1">
          <mxGeometry relative="1" as="geometry">
            <mxPoint x="283" y="-84" as="targetPoint" />
            <Array as="points">
              <mxPoint x="283" y="-388" />
            </Array>
          </mxGeometry>
        </mxCell>
        <mxCell id="0FI_tfFNJNvcFmxFVnWc-1" value="has" style="shape=rhombus;perimeter=rhombusPerimeter;whiteSpace=wrap;html=1;align=center;" parent="1" vertex="1">
          <mxGeometry x="223" y="12" width="120" height="60" as="geometry" />
        </mxCell>
        <mxCell id="0FI_tfFNJNvcFmxFVnWc-2" value="EMPLOYEE&#39;S DEDUCTION CATEGORIES" style="rounded=0;whiteSpace=wrap;html=1;" parent="1" vertex="1">
          <mxGeometry x="584.75" y="-418" width="120" height="60" as="geometry" />
        </mxCell>
        <mxCell id="Q0URbwxdZeZOYWGPHVsl-4" style="edgeStyle=orthogonalEdgeStyle;rounded=0;orthogonalLoop=1;jettySize=auto;html=1;exitX=0.5;exitY=0;exitDx=0;exitDy=0;entryX=0.5;entryY=0;entryDx=0;entryDy=0;endArrow=none;endFill=0;" parent="1" source="Q0URbwxdZeZOYWGPHVsl-1" target="0FI_tfFNJNvcFmxFVnWc-2" edge="1">
          <mxGeometry relative="1" as="geometry">
            <Array as="points">
              <mxPoint x="-389" y="-450" />
              <mxPoint x="645" y="-450" />
            </Array>
          </mxGeometry>
        </mxCell>
        <mxCell id="0FI_tfFNJNvcFmxFVnWc-4" value="CATEGORIES" style="rounded=0;whiteSpace=wrap;html=1;" parent="1" vertex="1">
          <mxGeometry x="1450" y="-383" width="120" height="60" as="geometry" />
        </mxCell>
        <mxCell id="Q0URbwxdZeZOYWGPHVsl-1" value="generates" style="shape=rhombus;perimeter=rhombusPerimeter;whiteSpace=wrap;html=1;align=center;" parent="1" vertex="1">
          <mxGeometry x="-449" y="527.25" width="120" height="60" as="geometry" />
        </mxCell>
        <mxCell id="0FI_tfFNJNvcFmxFVnWc-9" style="edgeStyle=none;curved=1;rounded=0;orthogonalLoop=1;jettySize=auto;html=1;entryX=0;entryY=0.5;entryDx=0;entryDy=0;strokeColor=#23445D;fontSize=12;startSize=8;endSize=8;endArrow=none;endFill=0;" parent="1" target="0FI_tfFNJNvcFmxFVnWc-4" edge="1">
          <mxGeometry relative="1" as="geometry">
            <mxPoint x="1375" y="-353" as="sourcePoint" />
          </mxGeometry>
        </mxCell>
        <mxCell id="bJjsRzqaRd4c7asXYir--1" value="(Employee_Name)" style="ellipse;whiteSpace=wrap;html=1;align=center;" parent="1" vertex="1">
          <mxGeometry x="331" y="85" width="128" height="48" as="geometry" />
        </mxCell>
        <mxCell id="bJjsRzqaRd4c7asXYir--3" value="" style="endArrow=none;html=1;rounded=0;exitX=0.75;exitY=0;exitDx=0;exitDy=0;entryX=0;entryY=1;entryDx=0;entryDy=0;" parent="1" source="CG7BJl7uc96B3Ltmujwu-1" target="bJjsRzqaRd4c7asXYir--1" edge="1">
          <mxGeometry relative="1" as="geometry">
            <mxPoint x="306" y="183" as="sourcePoint" />
            <mxPoint x="466" y="183" as="targetPoint" />
          </mxGeometry>
        </mxCell>
        <mxCell id="bJjsRzqaRd4c7asXYir--4" value="First_Name" style="ellipse;whiteSpace=wrap;html=1;align=center;" parent="1" vertex="1">
          <mxGeometry x="394.25" y="32" width="100" height="40" as="geometry" />
        </mxCell>
        <mxCell id="bJjsRzqaRd4c7asXYir--5" value="" style="endArrow=none;html=1;rounded=0;exitX=0.5;exitY=0;exitDx=0;exitDy=0;entryX=0;entryY=1;entryDx=0;entryDy=0;" parent="1" source="bJjsRzqaRd4c7asXYir--1" target="bJjsRzqaRd4c7asXYir--4" edge="1">
          <mxGeometry relative="1" as="geometry">
            <mxPoint x="429" y="193" as="sourcePoint" />
            <mxPoint x="589" y="193" as="targetPoint" />
          </mxGeometry>
        </mxCell>
        <mxCell id="bJjsRzqaRd4c7asXYir--6" value="Last_Name" style="ellipse;whiteSpace=wrap;html=1;align=center;" parent="1" vertex="1">
          <mxGeometry x="494.25" y="72" width="100" height="40" as="geometry" />
        </mxCell>
        <mxCell id="bJjsRzqaRd4c7asXYir--7" value="" style="endArrow=none;html=1;rounded=0;exitX=1;exitY=0.5;exitDx=0;exitDy=0;entryX=0;entryY=0.5;entryDx=0;entryDy=0;" parent="1" source="bJjsRzqaRd4c7asXYir--1" target="bJjsRzqaRd4c7asXYir--6" edge="1">
          <mxGeometry relative="1" as="geometry">
            <mxPoint x="457" y="114" as="sourcePoint" />
            <mxPoint x="589" y="193" as="targetPoint" />
          </mxGeometry>
        </mxCell>
        <mxCell id="bJjsRzqaRd4c7asXYir--9" value="Employee_ID" style="ellipse;whiteSpace=wrap;html=1;align=center;fontStyle=4;" parent="1" vertex="1">
          <mxGeometry x="388" y="151" width="100" height="40" as="geometry" />
        </mxCell>
        <mxCell id="bJjsRzqaRd4c7asXYir--10" value="" style="endArrow=none;html=1;rounded=0;exitX=1;exitY=0.5;exitDx=0;exitDy=0;entryX=0;entryY=0.5;entryDx=0;entryDy=0;" parent="1" source="CG7BJl7uc96B3Ltmujwu-1" target="bJjsRzqaRd4c7asXYir--9" edge="1">
          <mxGeometry relative="1" as="geometry">
            <mxPoint x="293" y="193" as="sourcePoint" />
            <mxPoint x="453" y="193" as="targetPoint" />
          </mxGeometry>
        </mxCell>
        <mxCell id="bJjsRzqaRd4c7asXYir--11" value="Job_Title" style="ellipse;whiteSpace=wrap;html=1;align=center;" parent="1" vertex="1">
          <mxGeometry x="154" y="77" width="100" height="40" as="geometry" />
        </mxCell>
        <mxCell id="bJjsRzqaRd4c7asXYir--12" value="" style="endArrow=none;html=1;rounded=0;entryX=0.25;entryY=0;entryDx=0;entryDy=0;exitX=1;exitY=1;exitDx=0;exitDy=0;" parent="1" source="bJjsRzqaRd4c7asXYir--11" target="CG7BJl7uc96B3Ltmujwu-1" edge="1">
          <mxGeometry relative="1" as="geometry">
            <mxPoint x="218" y="124" as="sourcePoint" />
            <mxPoint x="378" y="124" as="targetPoint" />
          </mxGeometry>
        </mxCell>
        <mxCell id="bJjsRzqaRd4c7asXYir--13" value="TIN_Number" style="ellipse;whiteSpace=wrap;html=1;align=center;" parent="1" vertex="1">
          <mxGeometry x="42" y="112" width="100" height="40" as="geometry" />
        </mxCell>
        <mxCell id="njrsVde2IB6XEEYohYFF-1" value="Total_Bonus" style="ellipse;whiteSpace=wrap;html=1;align=center;" parent="1" vertex="1">
          <mxGeometry x="524" y="141" width="128" height="48" as="geometry" />
        </mxCell>
        <mxCell id="bJjsRzqaRd4c7asXYir--16" value="Gender" style="ellipse;whiteSpace=wrap;html=1;align=center;" parent="1" vertex="1">
          <mxGeometry x="89" y="197" width="100" height="40" as="geometry" />
        </mxCell>
        <mxCell id="njrsVde2IB6XEEYohYFF-2" value="&lt;u&gt;Employee_ID&lt;/u&gt;" style="ellipse;whiteSpace=wrap;html=1;align=center;" parent="1" vertex="1">
          <mxGeometry x="697" y="141" width="128" height="48" as="geometry" />
        </mxCell>
        <mxCell id="bJjsRzqaRd4c7asXYir--18" value="Emp_DeductionsID" style="ellipse;whiteSpace=wrap;html=1;align=center;fontStyle=4;" parent="1" vertex="1">
          <mxGeometry x="686.5" y="-489" width="125.5" height="41" as="geometry" />
        </mxCell>
        <mxCell id="bJjsRzqaRd4c7asXYir--19" value="" style="endArrow=none;html=1;rounded=0;exitX=0.75;exitY=0;exitDx=0;exitDy=0;entryX=0;entryY=1;entryDx=0;entryDy=0;" parent="1" source="0FI_tfFNJNvcFmxFVnWc-2" target="bJjsRzqaRd4c7asXYir--18" edge="1">
          <mxGeometry relative="1" as="geometry">
            <mxPoint x="616.75" y="-330" as="sourcePoint" />
            <mxPoint x="776.75" y="-330" as="targetPoint" />
          </mxGeometry>
        </mxCell>
        <mxCell id="bJjsRzqaRd4c7asXYir--20" value="Total_PhilHealth_Deductions" style="ellipse;whiteSpace=wrap;html=1;align=center;" parent="1" vertex="1">
          <mxGeometry x="1415" y="-490" width="199" height="44" as="geometry" />
        </mxCell>
        <mxCell id="njrsVde2IB6XEEYohYFF-7" value="Department_Name" style="ellipse;whiteSpace=wrap;html=1;align=center;" parent="1" vertex="1">
          <mxGeometry x="-189.75" y="723" width="128" height="48" as="geometry" />
        </mxCell>
        <mxCell id="njrsVde2IB6XEEYohYFF-8" value="&lt;u&gt;Department_ID_Code&lt;/u&gt;" style="ellipse;whiteSpace=wrap;html=1;align=center;" parent="1" vertex="1">
          <mxGeometry x="-16.75" y="723" width="128" height="48" as="geometry" />
        </mxCell>
        <mxCell id="bJjsRzqaRd4c7asXYir--14" value="" style="endArrow=none;html=1;rounded=0;entryX=0;entryY=0.25;entryDx=0;entryDy=0;exitX=1;exitY=1;exitDx=0;exitDy=0;" parent="1" source="bJjsRzqaRd4c7asXYir--13" target="CG7BJl7uc96B3Ltmujwu-1" edge="1">
          <mxGeometry relative="1" as="geometry">
            <mxPoint x="148" y="191" as="sourcePoint" />
            <mxPoint x="308" y="191" as="targetPoint" />
          </mxGeometry>
        </mxCell>
        <mxCell id="bJjsRzqaRd4c7asXYir--17" value="" style="endArrow=none;html=1;rounded=0;exitX=1;exitY=0;exitDx=0;exitDy=0;" parent="1" source="bJjsRzqaRd4c7asXYir--16" edge="1">
          <mxGeometry relative="1" as="geometry">
            <mxPoint x="148" y="191" as="sourcePoint" />
            <mxPoint x="224" y="191" as="targetPoint" />
          </mxGeometry>
        </mxCell>
        <mxCell id="bJjsRzqaRd4c7asXYir--22" value="" style="endArrow=none;html=1;rounded=0;entryX=0.25;entryY=0;entryDx=0;entryDy=0;exitX=1;exitY=0.5;exitDx=0;exitDy=0;" parent="1" target="0FI_tfFNJNvcFmxFVnWc-4" edge="1">
          <mxGeometry relative="1" as="geometry">
            <mxPoint x="1448.0000000000023" y="-415.9999999999999" as="sourcePoint" />
            <mxPoint x="1555" y="-310" as="targetPoint" />
          </mxGeometry>
        </mxCell>
        <mxCell id="bJjsRzqaRd4c7asXYir--25" value="" style="endArrow=none;html=1;rounded=0;exitX=0.5;exitY=0;exitDx=0;exitDy=0;entryX=0.5;entryY=1;entryDx=0;entryDy=0;" parent="1" source="0FI_tfFNJNvcFmxFVnWc-4" target="bJjsRzqaRd4c7asXYir--20" edge="1">
          <mxGeometry relative="1" as="geometry">
            <mxPoint x="1445" y="-385" as="sourcePoint" />
            <mxPoint x="1605" y="-385" as="targetPoint" />
          </mxGeometry>
        </mxCell>
        <mxCell id="bJjsRzqaRd4c7asXYir--26" value="Total_SSS_Deductions" style="ellipse;whiteSpace=wrap;html=1;align=center;" parent="1" vertex="1">
          <mxGeometry x="1559" y="-448" width="155" height="45" as="geometry" />
        </mxCell>
        <mxCell id="bJjsRzqaRd4c7asXYir--27" value="" style="endArrow=none;html=1;rounded=0;exitX=0.75;exitY=0;exitDx=0;exitDy=0;entryX=0;entryY=1;entryDx=0;entryDy=0;" parent="1" source="0FI_tfFNJNvcFmxFVnWc-4" target="bJjsRzqaRd4c7asXYir--26" edge="1">
          <mxGeometry relative="1" as="geometry">
            <mxPoint x="1445" y="-385" as="sourcePoint" />
            <mxPoint x="1605" y="-385" as="targetPoint" />
          </mxGeometry>
        </mxCell>
        <mxCell id="njrsVde2IB6XEEYohYFF-12" value="Date_of_Attendance" style="ellipse;whiteSpace=wrap;html=1;align=center;" parent="1" vertex="1">
          <mxGeometry x="449" y="749" width="128" height="48" as="geometry" />
        </mxCell>
        <mxCell id="bJjsRzqaRd4c7asXYir--28" value="Total_Cash_Advance_Deductions" style="ellipse;whiteSpace=wrap;html=1;align=center;" parent="1" vertex="1">
          <mxGeometry x="1614" y="-377" width="211" height="43" as="geometry" />
        </mxCell>
        <mxCell id="njrsVde2IB6XEEYohYFF-15" value="&lt;u&gt;Employee_ID&lt;/u&gt;" style="ellipse;whiteSpace=wrap;html=1;align=center;fillColor=#fff2cc;strokeColor=#d6b656;" parent="1" vertex="1">
          <mxGeometry x="753" y="749" width="128" height="48" as="geometry" />
        </mxCell>
        <mxCell id="njrsVde2IB6XEEYohYFF-14" value="Clock_Out" style="ellipse;whiteSpace=wrap;html=1;align=center;" parent="1" vertex="1">
          <mxGeometry x="684" y="682" width="128" height="48" as="geometry" />
        </mxCell>
        <mxCell id="njrsVde2IB6XEEYohYFF-23" value="Overtime_Pay" style="ellipse;whiteSpace=wrap;html=1;align=center;" parent="1" vertex="1">
          <mxGeometry x="388.5" y="1060" width="128" height="48" as="geometry" />
        </mxCell>
        <mxCell id="bJjsRzqaRd4c7asXYir--31" value="Total_Tax_Deductions" style="ellipse;whiteSpace=wrap;html=1;align=center;" parent="1" vertex="1">
          <mxGeometry x="1531" y="-292" width="165" height="40" as="geometry" />
        </mxCell>
        <mxCell id="njrsVde2IB6XEEYohYFF-24" value="Overtime_Rate" style="ellipse;whiteSpace=wrap;html=1;align=center;" parent="1" vertex="1">
          <mxGeometry x="466.25" y="1160" width="128" height="48" as="geometry" />
        </mxCell>
        <mxCell id="njrsVde2IB6XEEYohYFF-13" value="Clock_In" style="ellipse;whiteSpace=wrap;html=1;align=center;" parent="1" vertex="1">
          <mxGeometry x="524" y="682" width="128" height="48" as="geometry" />
        </mxCell>
        <mxCell id="njrsVde2IB6XEEYohYFF-25" value="Overtime_Date" style="ellipse;whiteSpace=wrap;html=1;align=center;" parent="1" vertex="1">
          <mxGeometry x="600" y="1230" width="128" height="48" as="geometry" />
        </mxCell>
        <mxCell id="njrsVde2IB6XEEYohYFF-16" value="Total_Attendance" style="ellipse;whiteSpace=wrap;html=1;align=center;" parent="1" vertex="1">
          <mxGeometry x="781" y="837" width="128" height="48" as="geometry" />
        </mxCell>
        <mxCell id="njrsVde2IB6XEEYohYFF-26" value="&lt;u&gt;Employee_ID&lt;/u&gt;" style="ellipse;whiteSpace=wrap;html=1;align=center;fillColor=#fff2cc;strokeColor=#d6b656;" parent="1" vertex="1">
          <mxGeometry x="745" y="1164" width="128" height="48" as="geometry" />
        </mxCell>
        <mxCell id="bJjsRzqaRd4c7asXYir--34" value="" style="endArrow=none;html=1;rounded=0;entryX=0.25;entryY=1;entryDx=0;entryDy=0;exitX=1;exitY=0;exitDx=0;exitDy=0;" parent="1" source="bJjsRzqaRd4c7asXYir--33" target="0FI_tfFNJNvcFmxFVnWc-4" edge="1">
          <mxGeometry relative="1" as="geometry">
            <mxPoint x="1452" y="-352" as="sourcePoint" />
            <mxPoint x="1612" y="-352" as="targetPoint" />
          </mxGeometry>
        </mxCell>
        <mxCell id="njrsVde2IB6XEEYohYFF-27" value="Overtime_Hours" style="ellipse;whiteSpace=wrap;html=1;align=center;" parent="1" vertex="1">
          <mxGeometry x="812" y="1060" width="128" height="48" as="geometry" />
        </mxCell>
        <mxCell id="bJjsRzqaRd4c7asXYir--35" value="Hourly_Rate" style="ellipse;whiteSpace=wrap;html=1;align=center;" parent="1" vertex="1">
          <mxGeometry x="-24" y="449" width="100" height="40" as="geometry" />
        </mxCell>
        <mxCell id="bJjsRzqaRd4c7asXYir--29" value="" style="endArrow=none;html=1;rounded=0;exitX=1;exitY=0.5;exitDx=0;exitDy=0;entryX=0;entryY=0.5;entryDx=0;entryDy=0;" parent="1" source="0FI_tfFNJNvcFmxFVnWc-4" target="bJjsRzqaRd4c7asXYir--28" edge="1">
          <mxGeometry relative="1" as="geometry">
            <mxPoint x="1581" y="-352" as="sourcePoint" />
            <mxPoint x="1741" y="-352" as="targetPoint" />
          </mxGeometry>
        </mxCell>
        <mxCell id="bJjsRzqaRd4c7asXYir--36" value="" style="endArrow=none;html=1;rounded=0;entryX=0;entryY=0.5;entryDx=0;entryDy=0;exitX=1;exitY=0.5;exitDx=0;exitDy=0;" parent="1" source="bJjsRzqaRd4c7asXYir--35" target="MASK369SihK40Q0xY-oh-2" edge="1">
          <mxGeometry relative="1" as="geometry">
            <mxPoint x="126" y="486" as="sourcePoint" />
            <mxPoint x="286" y="486" as="targetPoint" />
          </mxGeometry>
        </mxCell>
        <mxCell id="bJjsRzqaRd4c7asXYir--33" value="Total_Deductions" style="ellipse;whiteSpace=wrap;html=1;align=center;" parent="1" vertex="1">
          <mxGeometry x="1367" y="-292" width="118" height="40" as="geometry" />
        </mxCell>
        <mxCell id="bJjsRzqaRd4c7asXYir--37" value="Fulltime_Rate" style="ellipse;whiteSpace=wrap;html=1;align=center;" parent="1" vertex="1">
          <mxGeometry x="486" y="449" width="100" height="40" as="geometry" />
        </mxCell>
        <mxCell id="bJjsRzqaRd4c7asXYir--32" value="" style="endArrow=none;html=1;rounded=0;entryX=0;entryY=0;entryDx=0;entryDy=0;exitX=0.75;exitY=1;exitDx=0;exitDy=0;" parent="1" source="0FI_tfFNJNvcFmxFVnWc-4" target="bJjsRzqaRd4c7asXYir--31" edge="1">
          <mxGeometry relative="1" as="geometry">
            <mxPoint x="1452" y="-352" as="sourcePoint" />
            <mxPoint x="1612" y="-352" as="targetPoint" />
          </mxGeometry>
        </mxCell>
        <mxCell id="bJjsRzqaRd4c7asXYir--38" value="" style="endArrow=none;html=1;rounded=0;exitX=1;exitY=0.5;exitDx=0;exitDy=0;entryX=0;entryY=0.5;entryDx=0;entryDy=0;" parent="1" source="MASK369SihK40Q0xY-oh-3" target="bJjsRzqaRd4c7asXYir--37" edge="1">
          <mxGeometry relative="1" as="geometry">
            <mxPoint x="418" y="486" as="sourcePoint" />
            <mxPoint x="578" y="486" as="targetPoint" />
          </mxGeometry>
        </mxCell>
        <mxCell id="bJjsRzqaRd4c7asXYir--39" value="Emp_Schedule_ID" style="ellipse;whiteSpace=wrap;html=1;align=center;fontStyle=4;" parent="1" vertex="1">
          <mxGeometry x="87" y="786" width="136" height="40" as="geometry" />
        </mxCell>
        <mxCell id="bJjsRzqaRd4c7asXYir--40" value="" style="endArrow=none;html=1;rounded=0;entryX=0;entryY=0.25;entryDx=0;entryDy=0;exitX=1;exitY=1;exitDx=0;exitDy=0;" parent="1" source="bJjsRzqaRd4c7asXYir--39" target="MASK369SihK40Q0xY-oh-30" edge="1">
          <mxGeometry relative="1" as="geometry">
            <mxPoint x="160" y="826" as="sourcePoint" />
            <mxPoint x="320" y="826" as="targetPoint" />
          </mxGeometry>
        </mxCell>
        <mxCell id="bJjsRzqaRd4c7asXYir--45" style="edgeStyle=orthogonalEdgeStyle;rounded=0;orthogonalLoop=1;jettySize=auto;html=1;exitX=0;exitY=0.5;exitDx=0;exitDy=0;" parent="1" source="bJjsRzqaRd4c7asXYir--41" edge="1">
          <mxGeometry relative="1" as="geometry">
            <mxPoint x="75.09096457741475" y="889.8181818181818" as="targetPoint" />
          </mxGeometry>
        </mxCell>
        <mxCell id="bJjsRzqaRd4c7asXYir--41" value="Employee_ID" style="ellipse;whiteSpace=wrap;html=1;align=center;fillColor=#fff2cc;strokeColor=#d6b656;" parent="1" vertex="1">
          <mxGeometry x="105" y="870" width="100" height="40" as="geometry" />
        </mxCell>
        <mxCell id="bJjsRzqaRd4c7asXYir--42" value="FK ni siya from the EMPLOYEE entity, is this appropriate to put in the ERD?" style="shape=note;size=20;whiteSpace=wrap;html=1;fillColor=#fff2cc;strokeColor=#d6b656;" parent="1" vertex="1">
          <mxGeometry x="-55" y="867" width="128.25" height="100" as="geometry" />
        </mxCell>
        <mxCell id="bJjsRzqaRd4c7asXYir--46" value="" style="endArrow=none;html=1;rounded=0;entryX=0;entryY=0.75;entryDx=0;entryDy=0;exitX=1;exitY=0.5;exitDx=0;exitDy=0;" parent="1" source="bJjsRzqaRd4c7asXYir--41" target="MASK369SihK40Q0xY-oh-30" edge="1">
          <mxGeometry relative="1" as="geometry">
            <mxPoint x="136" y="913" as="sourcePoint" />
            <mxPoint x="296" y="913" as="targetPoint" />
          </mxGeometry>
        </mxCell>
        <mxCell id="bJjsRzqaRd4c7asXYir--49" value="Shift_Start_Time" style="ellipse;whiteSpace=wrap;html=1;align=center;" parent="1" vertex="1">
          <mxGeometry x="121.5" y="921" width="100" height="40" as="geometry" />
        </mxCell>
        <mxCell id="bJjsRzqaRd4c7asXYir--50" value="" style="endArrow=none;html=1;rounded=0;entryX=0.25;entryY=1;entryDx=0;entryDy=0;exitX=1;exitY=0;exitDx=0;exitDy=0;" parent="1" source="bJjsRzqaRd4c7asXYir--49" target="MASK369SihK40Q0xY-oh-30" edge="1">
          <mxGeometry relative="1" as="geometry">
            <mxPoint x="211" y="913" as="sourcePoint" />
            <mxPoint x="371" y="913" as="targetPoint" />
          </mxGeometry>
        </mxCell>
        <mxCell id="bJjsRzqaRd4c7asXYir--51" value="Shift_End_Time" style="ellipse;whiteSpace=wrap;html=1;align=center;" parent="1" vertex="1">
          <mxGeometry x="231" y="939" width="100" height="40" as="geometry" />
        </mxCell>
        <mxCell id="bJjsRzqaRd4c7asXYir--52" value="" style="endArrow=none;html=1;rounded=0;exitX=0.5;exitY=1;exitDx=0;exitDy=0;entryX=0.5;entryY=0;entryDx=0;entryDy=0;" parent="1" source="MASK369SihK40Q0xY-oh-30" target="bJjsRzqaRd4c7asXYir--51" edge="1">
          <mxGeometry relative="1" as="geometry">
            <mxPoint x="269" y="899" as="sourcePoint" />
            <mxPoint x="429" y="899" as="targetPoint" />
          </mxGeometry>
        </mxCell>
        <mxCell id="bJjsRzqaRd4c7asXYir--53" value="Shift_Type" style="ellipse;whiteSpace=wrap;html=1;align=center;" parent="1" vertex="1">
          <mxGeometry x="352" y="910" width="100" height="40" as="geometry" />
        </mxCell>
        <mxCell id="bJjsRzqaRd4c7asXYir--54" value="" style="endArrow=none;html=1;rounded=0;exitX=0.75;exitY=1;exitDx=0;exitDy=0;entryX=0;entryY=0;entryDx=0;entryDy=0;" parent="1" source="MASK369SihK40Q0xY-oh-30" target="bJjsRzqaRd4c7asXYir--53" edge="1">
          <mxGeometry relative="1" as="geometry">
            <mxPoint x="269" y="899" as="sourcePoint" />
            <mxPoint x="429" y="899" as="targetPoint" />
          </mxGeometry>
        </mxCell>
        <mxCell id="bJjsRzqaRd4c7asXYir--55" value="Dept_Head_ID" style="ellipse;whiteSpace=wrap;html=1;align=center;fontStyle=4;fillColor=#fff2cc;strokeColor=#d6b656;" parent="1" vertex="1">
          <mxGeometry x="321" y="690" width="100" height="40" as="geometry" />
        </mxCell>
        <mxCell id="bJjsRzqaRd4c7asXYir--56" value="" style="endArrow=none;html=1;rounded=0;exitX=0.75;exitY=1;exitDx=0;exitDy=0;entryX=0;entryY=0;entryDx=0;entryDy=0;" parent="1" source="MASK369SihK40Q0xY-oh-8" target="bJjsRzqaRd4c7asXYir--55" edge="1">
          <mxGeometry relative="1" as="geometry">
            <mxPoint x="286" y="675" as="sourcePoint" />
            <mxPoint x="446" y="675" as="targetPoint" />
          </mxGeometry>
        </mxCell>
        <mxCell id="bJjsRzqaRd4c7asXYir--57" value="Manager_ID" style="ellipse;whiteSpace=wrap;html=1;align=center;fontStyle=4;fillColor=#fff2cc;strokeColor=#d6b656;" parent="1" vertex="1">
          <mxGeometry x="524" y="556" width="100" height="40" as="geometry" />
        </mxCell>
        <mxCell id="bJjsRzqaRd4c7asXYir--58" value="" style="endArrow=none;html=1;rounded=0;exitX=0.75;exitY=0;exitDx=0;exitDy=0;entryX=0;entryY=1;entryDx=0;entryDy=0;" parent="1" source="MASK369SihK40Q0xY-oh-9" target="bJjsRzqaRd4c7asXYir--57" edge="1">
          <mxGeometry relative="1" as="geometry">
            <mxPoint x="497" y="661" as="sourcePoint" />
            <mxPoint x="657" y="661" as="targetPoint" />
          </mxGeometry>
        </mxCell>
        <mxCell id="bJjsRzqaRd4c7asXYir--60" value="is it right to put Primary Keys for subtype of the subtype?" style="shape=note;size=20;whiteSpace=wrap;html=1;fillColor=#fff2cc;strokeColor=#d6b656;" parent="1" vertex="1">
          <mxGeometry x="721" y="540" width="100" height="100" as="geometry" />
        </mxCell>
        <mxCell id="bJjsRzqaRd4c7asXYir--61" style="edgeStyle=orthogonalEdgeStyle;rounded=0;orthogonalLoop=1;jettySize=auto;html=1;exitX=1;exitY=0.25;exitDx=0;exitDy=0;entryX=0;entryY=0.5;entryDx=0;entryDy=0;entryPerimeter=0;" parent="1" source="MASK369SihK40Q0xY-oh-9" target="bJjsRzqaRd4c7asXYir--60" edge="1">
          <mxGeometry relative="1" as="geometry" />
        </mxCell>
        <mxCell id="bJjsRzqaRd4c7asXYir--62" style="edgeStyle=orthogonalEdgeStyle;rounded=0;orthogonalLoop=1;jettySize=auto;html=1;exitX=1;exitY=0.5;exitDx=0;exitDy=0;entryX=0;entryY=1;entryDx=0;entryDy=0;entryPerimeter=0;" parent="1" source="bJjsRzqaRd4c7asXYir--55" target="bJjsRzqaRd4c7asXYir--60" edge="1">
          <mxGeometry relative="1" as="geometry">
            <Array as="points">
              <mxPoint x="421" y="679" />
              <mxPoint x="721" y="679" />
            </Array>
          </mxGeometry>
        </mxCell>
        <mxCell id="-uRxX_sYsHM3jiogf1Y5-1" value="" style="verticalLabelPosition=bottom;verticalAlign=top;html=1;shape=mxgraph.basic.arc;startAngle=0.3;endAngle=0.6696488171242955;rotation=60;" parent="1" vertex="1">
          <mxGeometry x="219.5" y="364.67" width="37" height="40" as="geometry" />
        </mxCell>
        <mxCell id="-uRxX_sYsHM3jiogf1Y5-2" value="" style="verticalLabelPosition=bottom;verticalAlign=top;html=1;shape=mxgraph.basic.arc;startAngle=0.3277698537812296;endAngle=0.6711970936297816;rotation=-45;" parent="1" vertex="1">
          <mxGeometry x="294" y="351" width="40" height="50" as="geometry" />
        </mxCell>
        <mxCell id="-uRxX_sYsHM3jiogf1Y5-3" value="&quot;H&quot;" style="text;html=1;align=center;verticalAlign=middle;whiteSpace=wrap;rounded=0;" parent="1" vertex="1">
          <mxGeometry x="174" y="351" width="60" height="30" as="geometry" />
        </mxCell>
        <mxCell id="-uRxX_sYsHM3jiogf1Y5-4" value="&quot;F&quot;" style="text;html=1;align=center;verticalAlign=middle;whiteSpace=wrap;rounded=0;" parent="1" vertex="1">
          <mxGeometry x="320" y="348" width="60" height="30" as="geometry" />
        </mxCell>
        <mxCell id="-uRxX_sYsHM3jiogf1Y5-7" value="" style="verticalLabelPosition=bottom;verticalAlign=top;html=1;shape=mxgraph.basic.arc;startAngle=0.3;endAngle=0.6696488171242955;rotation=60;" parent="1" vertex="1">
          <mxGeometry x="335" y="557.25" width="37" height="40" as="geometry" />
        </mxCell>
        <mxCell id="-uRxX_sYsHM3jiogf1Y5-8" value="" style="verticalLabelPosition=bottom;verticalAlign=top;html=1;shape=mxgraph.basic.arc;startAngle=0.3;endAngle=0.6696488171242955;rotation=-45;" parent="1" vertex="1">
          <mxGeometry x="398" y="557.25" width="37" height="40" as="geometry" />
        </mxCell>
        <mxCell id="-uRxX_sYsHM3jiogf1Y5-9" value="&quot;D&quot;" style="text;html=1;align=center;verticalAlign=middle;whiteSpace=wrap;rounded=0;" parent="1" vertex="1">
          <mxGeometry x="292" y="542.25" width="60" height="30" as="geometry" />
        </mxCell>
        <mxCell id="-uRxX_sYsHM3jiogf1Y5-10" value="&quot;M&quot;" style="text;html=1;align=center;verticalAlign=middle;whiteSpace=wrap;rounded=0;" parent="1" vertex="1">
          <mxGeometry x="421" y="543" width="60" height="30" as="geometry" />
        </mxCell>
        <mxCell id="IQhqfWnbCser1qJqU_I6-4" value="" style="shape=link;html=1;rounded=0;exitX=0.5;exitY=1;exitDx=0;exitDy=0;entryX=0.5;entryY=0;entryDx=0;entryDy=0;" parent="1" source="0FI_tfFNJNvcFmxFVnWc-2" target="IQhqfWnbCser1qJqU_I6-6" edge="1">
          <mxGeometry relative="1" as="geometry">
            <mxPoint x="541" y="-230" as="sourcePoint" />
            <mxPoint x="645" y="-271" as="targetPoint" />
          </mxGeometry>
        </mxCell>
        <mxCell id="IQhqfWnbCser1qJqU_I6-6" value="d" style="ellipse;whiteSpace=wrap;html=1;aspect=fixed;" parent="1" vertex="1">
          <mxGeometry x="627.13" y="-289.63" width="35.25" height="35.25" as="geometry" />
        </mxCell>
        <mxCell id="IQhqfWnbCser1qJqU_I6-8" value="Total_Deductions" style="ellipse;whiteSpace=wrap;html=1;align=center;dashed=1;" parent="1" vertex="1">
          <mxGeometry x="741" y="-432" width="119" height="40" as="geometry" />
        </mxCell>
        <mxCell id="5GjHKsNSO-JHVIr0YKw0-2" value="" style="endArrow=none;html=1;rounded=0;exitX=1;exitY=0.25;exitDx=0;exitDy=0;entryX=0;entryY=0.5;entryDx=0;entryDy=0;" parent="1" source="0FI_tfFNJNvcFmxFVnWc-2" target="IQhqfWnbCser1qJqU_I6-8" edge="1">
          <mxGeometry relative="1" as="geometry">
            <mxPoint x="660" y="-302" as="sourcePoint" />
            <mxPoint x="820" y="-302" as="targetPoint" />
          </mxGeometry>
        </mxCell>
        <mxCell id="5GjHKsNSO-JHVIr0YKw0-3" value="PhilHealth Deductions" style="whiteSpace=wrap;html=1;align=center;" parent="1" vertex="1">
          <mxGeometry x="472" y="-277" width="100" height="40" as="geometry" />
        </mxCell>
        <mxCell id="5GjHKsNSO-JHVIr0YKw0-4" value="" style="endArrow=none;html=1;rounded=0;entryX=0;entryY=0.5;entryDx=0;entryDy=0;exitX=1;exitY=0.5;exitDx=0;exitDy=0;" parent="1" source="5GjHKsNSO-JHVIr0YKw0-3" target="IQhqfWnbCser1qJqU_I6-6" edge="1">
          <mxGeometry relative="1" as="geometry">
            <mxPoint x="611" y="-231" as="sourcePoint" />
            <mxPoint x="771" y="-231" as="targetPoint" />
          </mxGeometry>
        </mxCell>
        <mxCell id="5GjHKsNSO-JHVIr0YKw0-5" value="Attribute" style="ellipse;whiteSpace=wrap;html=1;align=center;fontStyle=4;" parent="1" vertex="1">
          <mxGeometry x="488" y="-342" width="100" height="40" as="geometry" />
        </mxCell>
      </root>
    </mxGraphModel>
  </diagram>
</mxfile>
